<svg width="900" height="1100" viewBox="0 0 900 1100" fill="none" xmlns="http://www.w3.org/2000/svg">
  <rect width="900" height="1100" fill="#f4ebd9"/>
  <path d="M265 220L140 286C109 302 92 336 99 370L134 550L252 525L228 392L284 363L265 220Z" fill="#e6a51d" stroke="#221d1a" stroke-width="18" stroke-linejoin="round"/>
  <path d="M635 220L760 286C791 302 808 336 801 370L766 550L648 525L672 392L616 363L635 220Z" fill="#e6a51d" stroke="#221d1a" stroke-width="18" stroke-linejoin="round"/>
  <path d="M276 213H624L678 430L628 985C625 1019 597 1045 563 1045H337C303 1045 275 1019 272 985L222 430L276 213Z" fill="#fff4d8" stroke="#221d1a" stroke-width="18" stroke-linejoin="round"/>
  <path d="M355 214C362 263 401 302 450 302C499 302 538 263 545 214" stroke="#221d1a" stroke-width="18" stroke-linecap="round"/>
  <circle cx="450" cy="554" r="150" fill="#697844" stroke="#221d1a" stroke-width="16"/>
  <path d="M333 590C389 518 511 518 567 590" stroke="#fffaf0" stroke-width="18" stroke-linecap="round"/>
  <path d="M359 502C410 547 492 547 541 502" stroke="#e6a51d" stroke-width="18" stroke-linecap="round"/>
  <circle cx="394" cy="562" r="17" fill="#fffaf0"/>
  <circle cx="506" cy="562" r="17" fill="#fffaf0"/>
  <text x="450" y="766" text-anchor="middle" font-family="Georgia, serif" font-size="58" font-weight="700" fill="#221d1a">DREAMS</text>
  <text x="450" y="834" text-anchor="middle" font-family="Georgia, serif" font-size="58" font-weight="700" fill="#221d1a">&amp; DUST</text>
</svg>
