<svg width="900" height="1100" viewBox="0 0 900 1100" fill="none" xmlns="http://www.w3.org/2000/svg">
  <rect width="900" height="1100" fill="#f4ebd9"/>
  <path d="M265 220L140 286C109 302 92 336 99 370L134 550L252 525L228 392L284 363L265 220Z" fill="#8c8c86" stroke="#221d1a" stroke-width="18" stroke-linejoin="round"/>
  <path d="M635 220L760 286C791 302 808 336 801 370L766 550L648 525L672 392L616 363L635 220Z" fill="#8c8c86" stroke="#221d1a" stroke-width="18" stroke-linejoin="round"/>
  <path d="M276 213H624L678 430L628 985C625 1019 597 1045 563 1045H337C303 1045 275 1019 272 985L222 430L276 213Z" fill="#2f302d" stroke="#221d1a" stroke-width="18" stroke-linejoin="round"/>
  <path d="M355 214C362 263 401 302 450 302C499 302 538 263 545 214" stroke="#f4ebd9" stroke-width="18" stroke-linecap="round"/>
  <path d="M313 592C405 495 497 495 587 592C496 646 405 646 313 592Z" fill="#7bb7b7" stroke="#fffaf0" stroke-width="14" stroke-linejoin="round"/>
  <ellipse cx="450" cy="590" rx="108" ry="28" fill="#fffaf0" opacity="0.9"/>
  <path d="M450 401L481 502L586 502L501 565L534 669L450 606L366 669L399 565L314 502L419 502L450 401Z" fill="#e6a51d" stroke="#221d1a" stroke-width="12" stroke-linejoin="round"/>
  <text x="450" y="790" text-anchor="middle" font-family="Georgia, serif" font-size="58" font-weight="700" fill="#fffaf0">MOTHERSHIP</text>
  <text x="450" y="858" text-anchor="middle" font-family="Georgia, serif" font-size="58" font-weight="700" fill="#fffaf0">FLIGHT</text>
</svg>
