<svg width="900" height="1100" viewBox="0 0 900 1100" fill="none" xmlns="http://www.w3.org/2000/svg">
  <rect width="900" height="1100" fill="#fff8e7"/>
  <path d="M265 220L140 286C109 302 92 336 99 370L134 550L252 525L228 392L284 363L265 220Z" fill="#c9341f" stroke="#221d1a" stroke-width="18" stroke-linejoin="round"/>
  <path d="M635 220L760 286C791 302 808 336 801 370L766 550L648 525L672 392L616 363L635 220Z" fill="#c9341f" stroke="#221d1a" stroke-width="18" stroke-linejoin="round"/>
  <path d="M276 213H624L678 430L628 985C625 1019 597 1045 563 1045H337C303 1045 275 1019 272 985L222 430L276 213Z" fill="#fffaf0" stroke="#221d1a" stroke-width="18" stroke-linejoin="round"/>
  <path d="M355 214C362 263 401 302 450 302C499 302 538 263 545 214" stroke="#221d1a" stroke-width="18" stroke-linecap="round"/>
  <circle cx="450" cy="535" r="142" fill="#e6a51d" stroke="#221d1a" stroke-width="16"/>
  <path d="M343 536H557" stroke="#221d1a" stroke-width="14" stroke-linecap="round"/>
  <path d="M450 428V642" stroke="#221d1a" stroke-width="14" stroke-linecap="round"/>
  <path d="M374 459C418 493 484 494 526 459" stroke="#c9341f" stroke-width="16" stroke-linecap="round"/>
  <path d="M373 612C418 579 484 578 527 612" stroke="#c9341f" stroke-width="16" stroke-linecap="round"/>
  <text x="450" y="747" text-anchor="middle" font-family="Georgia, serif" font-size="60" font-weight="700" fill="#221d1a">SPACE</text>
  <text x="450" y="816" text-anchor="middle" font-family="Georgia, serif" font-size="60" font-weight="700" fill="#221d1a">COWBOY</text>
</svg>
